<?xml version="1.0" encoding="UTF-8"?><svg xmlns="http://www.w3.org/2000/svg" viewBox="0 0 718.843 729.598"><g id="top_circle"><path d="M718.836,365.001c.227,187.874-141.791,346.133-326.995,362.931C173.873,749.299-14.55,562.138.886,341.687,8.176,207.291,94.227,82.815,217.82,29.834c236.481-103.792,502.495,76.568,501.016,334.96v.208Z" fill="#b7893f"/><path d="M701.595,364.49c.236,180.123-134.675,332.911-312.309,349.192C180.945,734.171,1.328,553.838,16.129,341.935,23.098,213.043,104.951,93.05,223.438,41.925c227.051-100.031,479.787,75.234,478.157,322.357v.208Z" fill="#f4f2e5"/></g><g id="inner_circle"><ellipse cx="359.5" cy="366.213" rx="332.936" ry="340.596" fill="#b7893f"/><ellipse cx="359.964" cy="366.213" rx="328.34" ry="333.541" fill="#f6f2e5"/></g><g id="A"><path d="M305.942,308.911c-22.413-.353-47.997,3.292-68.985,12.942-11.326,5.62-20.485,17.594-17.976,31.077,18.233,52.09,148.204,31.63,155.026,31.036-12.39,17.563-38.289,46.97-57.002,64.48-7.81,7.235-15.852,14.1-23.831,18.462-14.237,7.086-39.038,16.35-61.536,4.505-8.984-4.584-21.607-16.983-24.851-29.179-1.164-3.668-1.898-7.825-2-11.456-.082-4.285.902-8.73-4.596-8.777-6.234,1.219-6.807,15.774-6.781,22.152.472,20.714,14.473,40.237,34.786,46.116,18.009,5.27,36.204,4.143,54.24-2.012,45.744-16.81,98.87-99.35,103.678-106.865.455-.506,1.631-.673,2.554-.903,8.308-1.706,16.713-3.375,25.026-5.061.874-.176,1.942-.398,2.654-.466.468-.038.657.03.651.226-1.841,5.214-14.284,37.723-21.59,57.173-2.642,6.951-4.341,11.506-5.12,13.525-9.201,19.249-7.126,44.906,3.722,50.535,17.37,9.55,32.473-2.447,44.294-15.778,4.483-5.066,10.44-12.368,12.223-20.04.703-2.672.214-7.28-3.064-3.785-5.433,6.425-23.628,32.361-31.441,27.347-10.483-6.283,14.811-85.288,24.002-112.475.673-2.267,1.882-3.858,4.155-4.311,11.966-3.228,30.465-7.131,39.613-17.751,9.215-11.79.238-26.231-12.61-30.006-2.295-.654-5.918-.064-5.807,2.967.043,2.687,2.801,4.095,4.817,5.325,8.175,5.011,8.335,12.607,1.335,18.608-3.556,2.725-7.236,4.402-11.858,6.481-4.011,1.7-8.365,3.146-11.921,3.961-2.488.584-2.15-1.056-1.362-2.751,7.889-17.563,16.199-35.109,23.912-52.742,1.415-8.512-10.839-6.616-15.77-4.757-4.196,1.616-19.603,12.585-30.711,24.741-12.936,14.595-26.833,33.944-36.807,47.117-1.996.105-112.082,8.37-146.63-17.755-4.637-2.734-11.735-14.612,11.187-25.95,13.993-7.288,33.505-11.592,54.348-15.935l.025-.018Z" fill="#461e05"/></g><g id="A-2"><path d="M396.889,364.832c1.397,2.652,8.611.674,11.332.638,4.898-.709,8.908-.794,12.67-2.23,1.991-.885,2.769-2.535,3.749-4.516,5.982-12.058,15.919-32.082,21.064-42.191,5.207-9.41-2.171-6.757-7.217-2.458-17.342,14.743-28.728,30.642-37.129,41.988-1.579,2.523-4.916,5.766-4.502,8.678l.032.092Z" fill="#f6f4e4"/></g><g id="A-3"><path d="M360.575,304.627c7.918-.167,47.449-1.001,68.91,1.98,1.307.206,3.45.432,4.021,1.349.756,1.274-1.347,3.359-2.615,3.954-11.506-.588-54.634-7.435-75.954-6.891.083-.231,4.139-.3,5.553-.388l.086-.003Z" fill="#461e05"/></g><g id="evapo1"><path d="M373.216,196.534c-.458.395.474,1.699.783,2.42,2.72,4.981,8.96,17.849,6.429,33.55-1.675,11.898-8.407,23.74-16.542,31.579-21.169,18.785-32.621,48.014-7.968,75.444,1.23,1.349,3.62,4.02,1.56.523-2.907-5.084-8.575-16.923-6.098-31.56,1.767-11.912,8.536-23.3,16.835-31.24,4.519-4.704,8.443-8.23,12.43-14.349,2.654-4.053,5.102-9.077,6.66-13.905,7.507-23.685-4.265-47.145-14.071-52.467l-.018.005Z" fill="#461e05"/></g><g id="evapo2"><path d="M338.162,180.194c-1.968-.208,1.824,2.665,2.298,3.19,18.99,15.998,17.543,43.403,2.645,63.698-7.478,11.118-17.289,20.608-20.832,33.915-7.513,27.751,12.096,50.206,24.153,59.299-5.916-6.004-9.486-13.396-12.267-22.951-3.545-11.616-.964-27.536,5.56-38.223,8.05-14.211,21.896-20.779,30.004-35.006,17.003-26.345-7.734-57.1-31.518-63.917l-.043-.005Z" fill="#dcc48a"/></g><g id="Layer_7"><path d="M317.4,364.181c.273.979,1.264,2.206,2.251,2.625.8.298,1.57.2,2.45.233,5.409-.046,16.464.408,19.79.101.128-.082.112-.224-.047-.452-1.223-1.579-4.052-3.506-5.041-5.354-.868-1.641-.369-3.634-1.02-5.403-.671-1.73-2.451-4.777-4.449-3.184-2.249,1.655-7.813,5.852-11.249,8.418-1.217.968-3.077,2.001-2.708,2.91l.022.105Z" fill="#96602d"/></g><g id="whisk"><path d="M317.391,360.425c-5.329-4.988-11.837-10.537-17.464-14.271-3.57-2.389-6.987-4.705-11.749-8.259-20.468-16.124-39.935-29.084-40.199-49.631-.348-4.479.689-12.073,4.103-17.71,4.965-8.543,15.918-15.832,26.487-15.782,8.921-.231,16.157,5.153,21.317,10.078,9.198,8.887,12.392,17.26,14.514,25.015,3.506,13.801,5.455,23.906,6.622,31.3,1.34,8.833,4.403,24.619,8.497,30.451.024.627-1.178,1.357-1.581,1.376-.134.008-.264-.014-.331-.142-.938-2.613-6.898-20.015-8.534-29.362-.498-6.302-9.383-72.229-47.036-65.92-.572.082-1.462.305-.62.374,16.782,1.223,35.047,22.213,40.887,48.977,2.997,11.047,11.565,40.461,13.54,44.792-6.311-16.102-11.583-32.174-16.098-44.306-4.037-10.731-8.582-22.731-12.092-27.34-5.821-8.868-16.194-16.231-21.298-17.565-2.916-.961-6.55-1.798-8.973-1.812-.049.038.201.154.629.332.511.258.582.209,1.175.495,12.26,5.242,24.128,18.488,29.497,32.092,2.057,4.893,3.784,10.106,5.837,15.315,1.881,4.92,3.956,10.493,6.64,15.549,2.396,4.577,5.235,8.98,7.594,13.593,2.924,5.817,4.537,10.706,5.86,14.049-.931-1.232-2.358-3.634-3.038-5.181-1.213-2.958-9.547-15.14-14.562-25.677-1.755-3.859-7.411-17.15-9.883-22.795-1.853-4.311-4.716-10.947-6.557-13.424-7.999-11.509-15.962-17.164-25.851-21.634-.993-.404.382.67.909,1.209,7.708,7.379,14.088,13.473,20.014,21.848,7.176,10.391,14.271,28.746,19.862,39.294,4.921,9.408,11.115,17.49,17.548,26.886.439.664.192.37.041.232-.622-.621-2.412-2.619-4.886-5.639-6.952-8.339-16.317-21.811-21.728-32.075-4.533-8.593-7.774-15.844-13.649-24.53-6.943-10.385-13.905-18.504-21.852-26.139-.352-.311-.494-.31-.48-.07.574,7.581,9.522,37.147,28.262,54.223,3.463,3.09,6.497,6.125,9.688,9.427,5.544,5.955,11.424,10.896,16.534,17.464,1.616,2.208,3.925,5.785,5.197,7.617.342.448.748,1.537.261,1.802-10.816-10.161-20.939-21.76-31.729-32.411-4.164-4.403-8.629-8.51-12.608-13.033-6.309-8.609-11.932-20.609-14.534-30.766-1.163-4.355-1.851-7.995-2.39-11.733-.151-1.09-.456-.324-.77.145-5.958,10.837-2.1,25.341,5.4,35.837,8.717,11.168,18.045,18.825,28.421,27.43,4.95,4.345,11.325,10.664,16.684,15.785,3.061,3.042,6.251,5.808,8.884,8.623.541,1.102,1.042,2.946-1.101,1.232-21.827-20.51-39.279-30.477-54.8-50.779-5.674-7.486-7.943-13.634-8.541-23.009-.146-4.148.28-7.965,1.147-11.435.139-.569.078-.704-.284-.255-8.132,9.424-2.458,26.469-.328,30.319,6.611,14.773,20.909,23.833,33.257,33.698,4.983,3.751,15.462,11.81,28.026,21.905,1.227.986,1.793,2.474,2.241,3.908l-.031.014Z" fill="#61503e"/><path d="M317.582,360.599s9.206-4.952,12.071-9.011c0,0-1.833-2.695-2.42-4.165,0,0-8.086,7.481-13.177,9.825,0,0,2.95,2.379,3.526,3.351Z" fill="#61503e"/></g><g id="Layer_10"><path d="M200.591,476.167s-30.036,10.288-29.75,24.828c.198,10.08,14.546,16.864,26.687,22.661,8.4,4.011,17.611,7.011,41.277,10.979,20.698,3.47,36.659,5.04,41.361,5.477,29.378,2.731,52.92,2.935,65.543,2.848,8.934-.061,30.019-.389,57.011-2.879,12.264-1.132,24.856-2.981,50.043-6.638,7.963-1.156,20.071-2.96,35.574-7.064,15.456-4.091,26.01-8.276,32.511-17.447,4.178-5.894,4.088-10.188,3.99-11.574-.445-6.274-5.137-10.496-8.415-13.362-7.178-6.275-14.529-8.181-24.34-10.723,0,0-8.687-2.251-28.511-3.489-.004,0-.018-.001-.018,0,0,.006.58.079.597.082,13.052,1.66,29.464,8.174,29.464,8.174,8.556,3.396,12.901,5.162,16.187,8.499,2.331,2.367,6.307,6.404,6.281,11.161-.054,10.012-17.467,18.174-25.702,20.34-12.609,3.317-26.099,6.323-40.425,8.809-38.007,6.593-72.59,7.904-102.14,6.766,0,0-95.903-.681-135.052-15.66,0,0-58.043-18.553-12.17-41.787Z" fill="#351500"/></g><g id="Layer_11"><path d="M218.047,490.805c.162-.176.331-.055.602.028,1.234.552,4.744,2.462,8.612,3.44,1.717.533,4.203.82,5.75,1.205,1.105,1.592,7.272,10.3,30.789,17.392,3.484,1.042,7.016,1.986,10.387,2.749,10.227,2.452,27.115,4.69,41.489,5.526,6.477.727,85.416,5.345,124.047-2.456,16.268-2.715,77.435-12.69,56.073-29.106-3.195-2.406-7.398-4.246-10.806-5.761,3.069-.324,9.304-.514,15.6,2.941,3.006,1.65,7.1,3.896,7.966,8.014,1.297,6.164-5.398,12.276-7.398,13.582-8.693,5.674-12.39,8.231-47.852,14.422-17.819,3.11-26.047,4.552-34.133,5.234-15.859,1.337-25.182,1.497-61.539.931-40.251-.627-51.315-.763-69.835-2.357,0,0-18.279-1.572-46.858-10.945-9.91-3.25-20.316-7.331-22.894-16.114-.992-3.381-.554-6.536,0-8.724Z" fill="#dcc184"/></g><g id="Layer_12"><path d="M293.737,486.839c-1.722,2.296-1.387,4.845-1.276,5.716.055.318.135.453.249.545,8.464,6.002,58.323,28.115,98.24,8.493.39-.214.479-.315.146-.377-7.091-.576-10.94-10.548-11.158-19.718-.138-3.396.005-7.376.509-12.015.147-2.06.716-4.607.568-6.148-1.313.317-3.932,2.154-10.677-1.823-7.548-4.447-13.07-10.677-19.299-17.729-.622-.58-1.738-2.267-2.372-1.591-3.11,3.581-22.906,25.91-49.056,40.44-2.012,1.117-4.513,2.385-5.746,4.037l-.128.168Z" fill="#a4672f"/></g><g id="Layer_13"><ellipse cx="342.615" cy="475.049" rx="22.249" ry="16.344" transform="translate(-220.34 313.378) rotate(-38.177)" fill="#f3f0e4"/></g><g id="Layer_14"><path d="M326.097,482.839c-.659-.494-.517-1.779-.373-3.35.123-1.157.344-2.472.727-3.867,2.498-10.273,14.555-18.585,24.685-16.027,1.262.066,8.926,4.271,4.782,4.711-4.661.273-9.918,2.507-13.169,6.042-1.805,1.81-2.326,4.537-4.205,6.724-2.628,3.321-8.228,6.857-12.372,5.822l-.076-.055Z" fill="#ac733b"/></g><g id="Layer_15"><path d="M327.691,484.779c1.116.283,5.526,1.261,10.221-1.122,5.121-2.599,6.864-7.307,7.204-8.293.639-1.267,2.217-3.965,5.41-5.992,3.993-2.535,7.978-2.41,9.335-2.307.134,1.333.195,3.237-.191,5.458-1.043,5.996-4.564,9.818-5.809,11.134-6.155,6.506-15.813,9.073-20.721,6.969-1.066-.457-3.757-1.611-4.971-4.315-.277-.618-.41-1.167-.479-1.532Z" fill="#a46e3c"/></g><g id="Layer_18"><path d="M423.451,435.747c.317-.618.441-.887.845-1.201,1.471-.892,7.212-4.315,14.61-9.502,5.603-3.924,12.147-8.841,18.477-14.379,8.943-7.85,17.205-16.577,22.243-26.055.635-1.079,1.215-2.529,1.637-2.994.022.017.016.113-.004.256-1.019,5.737-8.176,52.601-26.086,67.461-.963.467-1.385-.548-2.761-.96-3.958-1.202-7.966,2.852-10.157,6.103-1.656,2.427-2.655,4.289-3.902,6.498-1.717,2.939-7.409,11.998-15.477,14.733-1.519.442-6.321,2.038-6.141-.335.091-5.161,1.294-27.98,6.666-39.521l.051-.106Z" fill="#ab6c31"/><path d="M457.07,463.788c-1.732-2.161.841-18.354,14.587-29.059,6.627-5.149,12.731-7.871,21.353-10.302,8.957-2.3,26.219-4.505,40.542-10.307.242-.061.294-.04.22.111-.64,1.138-3.523,5.607-13.014,11.605-7.487,4.673-13.3,7.375-22.462,11.074-8.822,3.661-26.791,9.452-35.29,24.726-1.178,2.549-3.484,4.014-5.863,2.217l-.073-.065Z" fill="#4b2703"/><path d="M488.233,361.292c-2.861-1.356.297-5.854,1.71-7.84,7.085-9.066,20.396-12.908,31.506-11.977,13.445,1.35,27.382,10.456,30.52,24.181,3.425,14.632-1.217,31.2-13.627,40.465-2.841,2.038-10.812,6.901-13.97,4.985-1.492-1.725,4.276-7.633,5.291-9.687,5.915-8.707,8.714-20.968,6.465-31.115-4.035-10.739-17.395-12.987-27.46-11.92-6.075.303-12.571,2.25-17.873,3.003-.887.108-1.755.149-2.429-.051l-.132-.043Z" fill="#4b2703"/><path d="M426.298,426.066s59.234-38.128,56.681-62.298c0,0-22.979,35.064-53.617,51.745,0,0-3.234,5.277-3.064,10.553Z" fill="#767845"/><path d="M430.763,407.268c-.076,1.087.428.811.993.41,6.678-4.874,41.434-30.386,50.896-50.175.588-1.275,2.367-4.785.613-2.883-3.969,3.648-11.213,7.219-16.865,9.632-5.493,2.33-9.864,3.796-15.284,5.491-2.828,1.023-6.37,1.436-8.404,3.656-.458.554-.8,1.268-1.096,1.971-2.637,6.596-9.178,22.069-10.846,31.815l-.006.084Z" fill="#767845"/><path d="M379.455,398.311c-.493,2.074.872,2.876,2.83,4.99,2.711,2.723,6.735,7.703,8.856,10.687.758.99,1.298,1.599,1.715,1.729.486.152.79-.339,1.043-.744,2.479-4.291,10.707-19.225,14.182-29.909,1.601-4.775-.291-3.684-5.132-2.521-2.631.621-5.4,1.179-8.079,1.614-3.739.586-7.201.91-9.389,4.344-2.158,2.921-4.822,6.267-5.99,9.665l-.036.144Z" fill="#767845"/><path d="M376.35,403.037c1.481-1.049,2.571,1.395,3.714,2.731,2.717,3.621,7.79,10.382,10.268,13.684.902,1.167,1.937,2.358,1.344,3.938-.467,1.401-1.332,1.158-2.21-.038-2.592-3.239-10.786-13.459-12.969-16.196-.864-1.018-1.035-3.031-.224-4.035l.076-.084Z" fill="#685e46"/><path d="M352.896,433.565c-2.066,4.223,7.771,14.652,10.226,16.998,3.198,3.261,8.167,6.967,13.521,8.3,1.78.303,4.617,1.618,5.632.045.299-.691-.567-1.567-1.579-1.771-11.481-1.662-17.662-10.434-23.701-20.306-.752-1.287-2.494-3.907-4.014-3.327l-.084.061Z" fill="#685e46"/><path d="M358.138,428.875c3.638-5.191,7.277-10.383,10.915-15.574,5.482,6.922,10.965,13.844,16.447,20.766.495.835,2.166,3.888,1.326,7.626-.368,1.638-1.096,2.867-1.666,3.65-.536.517-1.867,1.645-3.787,1.787-1.531.114-2.752-.37-3.722-.942-.954-.563-1.989-1.268-3.038-2.154-2.7-2.278-4.365-4.792-5.368-6.67-.085.213-.17.426-.255.638.801,1.68,2.509,4.684,5.808,7.277,4.091,3.215,8.323,3.985,10.213,4.213-.894,1.069-1.809,1.601-2.505,1.885-3.348,1.366-7.919-.442-11.474-4.502-4.298-6-8.596-12-12.894-18Z" fill="#c8a54b"/><path d="M373.388,407.777c.242-.171.473-.249.696-.255,1.4-.032,2.603,2.225,3.018,2.986,2.777,5.087,7.07,9.187,10.526,13.839.519.699,1.839,2.47,1.66,4.654-.075.909-.431,2.153-.979,2.213-.677.073-1.313-1.7-1.872-2.936-.797-1.76-3.198-4.379-8-9.617-3.229-3.522-4.343-4.542-4.9-6.766-.411-1.642-.31-3.106-.148-4.119Z" fill="#c8a54b"/></g><g id="Layer_20"><path d="M216.692,422.725c-7.303-3.929-13.129-11.633-19.872-16.63-7.704-5.883-17.399-10.27-25.636-15.891-2.554-1.709-4.808-3.387-6.679-5.058-4.71-4.173-6.778-8.186-10.369-15.167-2.658-5.211-5.287-10.373-7.99-15.701-3.294-6.459-6.987-14.078-9.227-20.639-1.071-3.201-1.508-5.579-1.06-6.838,1.555-3.68,10.062,2.964,14.934,6.13,8.269,5.793,17.996,12.612,26.121,18.799,6.436,4.837,11.769,9.84,15.261,17.166,5.562,11.455,10.459,25.916,17.803,36.844,1.822,2.983,15.625,20.938,6.807,17.032l-.095-.047Z" fill="#311606"/></g><g id="Layer_22"><path d="M211.014,416.526c-5.304-2.857-9.535-8.46-14.433-12.093-5.595-4.278-12.637-7.468-18.618-11.556-1.855-1.243-3.492-2.463-4.85-3.678-3.421-3.035-4.922-5.953-7.531-11.029-1.93-3.789-3.84-7.543-5.803-11.418-2.392-4.697-5.074-10.238-6.702-15.009-.778-2.327-1.095-4.057-.77-4.973,1.129-2.676,7.308,2.155,10.846,4.458,6.006,4.213,13.07,9.171,18.971,13.671,4.675,3.518,8.548,7.156,11.084,12.483,4.04,8.33,7.596,18.846,12.93,26.793,1.323,2.169,11.348,15.226,4.944,12.386l-.069-.034Z" fill="#fff"/></g><g id="Layer_21"><path d="M211.014,414.843c-5.304-2.857-9.535-8.46-14.433-12.093-5.595-4.278-12.637-7.468-18.618-11.556-1.855-1.243-3.492-2.463-4.85-3.678-3.421-3.035-4.922-5.953-7.531-11.029-1.93-3.789-3.84-7.543-5.803-11.418-2.392-4.697-5.074-10.238-6.702-15.009-.778-2.327-1.095-4.057-.77-4.973,1.129-2.676,7.308,2.155,10.846,4.458,6.006,4.213,13.07,9.171,18.971,13.671,4.675,3.518,8.548,7.156,11.084,12.483,4.04,8.33,7.596,18.846,12.93,26.793,1.323,2.169,11.348,15.226,4.944,12.386l-.069-.034Z" fill="#675d41"/></g><g id="Layer_19"><path d="M341.636,392.831c-.867,1.966,2.058,5.997,2.867,8.27,1.297,2.173,2.249,7.424,5.365,4.127,1.817-1.75,4.811-4.845,6.661-6.724.887-.914,1.799-2.04,1.293-3.321-2.175-4.168-7.845-3.252-11.835-3.35-1.982-.021-3.725.074-4.287.901l-.064.096Z" fill="#c8a54b"/><path d="M356.592,391.577c-.01.507.755,1.37,1.128,1.876.428.504.911,1.142,1.609.971.939-.379,2.489-1.951,2.88-2.814.014-.243-.199-.295-.437-.345-.649-.096-1.42-.059-2.165-.068-.841.07-2.578-.201-2.991.296l-.025.084Z" fill="#c8a54b"/><path d="M342.959,412.983c-.633.228-1.432-1.388-2.491-3.617-1.876-4.251-5.454-10.537-6.888-14.765-.074-1.206,1.269-1.313,2.139-.944,2.152.966,2.45,2.73,3.848,5.593,1.154,3.437,6.396,10.787,3.453,13.711l-.06.022Z" fill="#928363"/><path d="M220.512,365.907c-1.171-.506-.109,3.587-.157,4.176.761,5.039,1.949,12.89,2.551,16.849.328,1.594.365,3.738,1.064,4.591,6.625,7.968,36.775,28.936,71.496,34.273,8.806,1.532,18.952,2.577,29.111,2.558,5.427.114,8.777-4.1,12.289-7.928,3.034-3.166,3.575-5.184,1.489-9.142-1.721-3.676-4.484-9.497-6.03-12.759-.515-1.105-1.603-3.53-2.311-3.896-9.62.337-85.508,2.87-109.445-28.697l-.055-.024Z" fill="#d8bb7d"/><path d="M228.757,400.536c-1.072-.931-2.194-2.125-1.845-.877,6.478,22.328,47.172,36.783,74.156,41.155,5.137,1.123,10.914,1.305,15.364-1.666,3.173-2.086,5.385-5.453,2.066-5.279-12.85-.095-65.303-6.931-89.65-33.248l-.092-.084Z" fill="#9d6331"/><path d="M276.138,495.364l12.511-5.957s2.043,22.043-18.894,7.404c0,0-.851-1.96,1.872-1.193l8.085,4.24s1.362.272.766-1.004l-4.936-2.894.596-.596Z" fill="#a56e38"/><path d="M234.166,415.303c-2.618-.557,1.921,8.802,3.991,12.209,4.577,8.038,11.53,13.075,17.877,19.031,4.586,4.325,10.181,10.431,14.257,15.402,1.914,2.287,3.338,4.013,4.53,4.934,2.265,1.905,5.034.495,7.447-.444,3.789-1.517,9.599-4.545,14.381-7.7,2.399-1.607,13.731-9.369,11.896-10.968-13.81-1.73-46.02-8.808-68.98-28.453-2.014-1.544-3.595-3.102-5.34-3.987l-.059-.022Z" fill="#9d6331"/><path d="M217.719,411.827c2.67-.916,5.779.915,7.098,3.344,1.521,2.436.484,4.796,2.181,6.429,5.294,4.964,31.04,28.791,42.292,43.936.796,1.127,1.862,2.466,1.676,3.735-.681,3.447-18.659,4.175-21.629,2.067-1.345-1.061-1.986-2.753-2.989-4.165-4.394-6.965-8.803-13.957-13.414-20.659-2.188-3.162-8.223-11.837-9.989-12.005-1.466.246,1.509,4.19,2.978,6.51,4.558,6.902,9.595,14.6,14.536,21.422,1.622,2.512,4.483,5.39,5.514,7.718.43,1.226-.799,1.312-1.908.169-5.021-6.726-21.989-31.277-28.482-39.256-.944-1.189-2.198-1.684-3.552-2.425-1.488-.82-3.176-1.896-3.782-3.809-1.282-3.087.332-6.229,2.777-8.211,2.168-1.821,4.054-3.669,6.557-4.75l.137-.049Z" fill="#9d6331"/></g><g id="Layer_23"><path d="M74.335,371.984c-.53-.298-.658.419-.746.834-.898,4.436,1.371,10.517,7.15,11.425,2.316.057.682-1.958-1.137-4.728-1.543-2.08-3.724-6.046-5.201-7.489l-.065-.043Z" fill="#ae924d"/><path d="M76.052,371.228c-.524.238-.11.949.849,2.141,2.065,2.313,3.994,5.979,5.661,8.637.919,1.206,1.081-.404,1.136-2.491.327-4.06-3.312-8.576-7.573-8.315l-.072.028Z" fill="#ae924d"/><path d="M78.366,358.099c-3.039,2.354-4.973-3.577-5.268-6.282-1.02-10.518,4.083-15.9,13.815-18.965,4.635-1.353-.064,4.012-.956,6.863-2.516,6.08-2.981,13.158-7.508,18.31l-.083.074Z" fill="#ba9856"/><path d="M80.528,359.154c-.305-.236-.178-.729.332-1.504.675-1.026,1.792-2.277,2.645-3.358,4.996-5.244,3.16-13.638,6.759-19.869,1.039-1.854,2.328-1.668,3.161-.029,1.886,3.652,4.746,11.194,1.069,17.011-2.305,4.005-7.591,6.824-11.727,7.724-1.093.242-1.855.273-2.19.059l-.048-.034Z" fill="#ba9856"/><path d="M92.054,381.865c-.578.966.6,1.549,3.264,2.109,1.862.401,4.252.93,6.818,1.645,3.041.822,6.51,2.061,9.382,2.968,2.205.699,5.274,1.544,3.481-1.809-1.236-2.384-3.622-5.794-7.177-7.439-4.816-2.438-12.16-1.179-15.726,2.458l-.042.07Z" fill="#ba9856"/><path d="M92.399,384.128c-1.263.023-.794,1.354-.375,2.154,1.964,4.076,7.395,9.449,13.318,8.63,3.027-.387,6.846-1.592,8.432-4.007.08-.63-.721-.737-1.237-.902-1.806-.396-5.122-1.18-8.463-2.234-3.862-1.022-8.06-3.172-11.584-3.643l-.092.003Z" fill="#ba9856"/><path d="M646.418,374.394c.594-.298.737.419.836.834,1.007,4.436-1.537,10.517-8.012,11.425-2.595.057-.765-1.958,1.274-4.728,1.729-2.08,4.174-6.046,5.829-7.489l.073-.043Z" fill="#ae924d"/><path d="M644.493,373.638c.588.238.123.949-.951,2.141-2.315,2.313-4.476,5.979-6.344,8.637-1.03,1.206-1.212-.404-1.273-2.491-.367-4.06,3.711-8.576,8.487-8.315l.08.028Z" fill="#ae924d"/><path d="M641.899,360.509c3.406,2.354,5.573-3.577,5.904-6.282,1.143-10.518-4.576-15.9-15.482-18.965-5.194-1.353.072,4.012,1.071,6.863,2.82,6.08,3.341,13.158,8.414,18.31l.093.074Z" fill="#ba9856"/><path d="M639.476,361.563c.342-.236.199-.729-.372-1.504-.757-1.026-2.008-2.277-2.964-3.358-5.599-5.244-3.542-13.638-7.574-19.869-1.165-1.854-2.609-1.668-3.543-.029-2.114,3.652-5.319,11.194-1.198,17.011,2.583,4.005,8.507,6.824,13.142,7.724,1.225.242,2.079.273,2.455.059l.054-.034Z" fill="#ba9856"/><path d="M626.56,384.275c.648.966-.672,1.549-3.658,2.109-2.087.401-4.765.93-7.641,1.645-3.408.822-7.296,2.061-10.514,2.968-2.471.699-5.911,1.544-3.901-1.809,1.385-2.384,4.059-5.794,8.043-7.439,5.397-2.438,13.628-1.179,17.624,2.458l.047.07Z" fill="#ba9856"/><path d="M626.173,386.538c1.415.023.89,1.354.42,2.154-2.201,4.076-8.288,9.449-14.925,8.63-3.392-.387-7.672-1.592-9.449-4.007-.089-.63.808-.737,1.386-.902,2.023-.396,5.74-1.18,9.484-2.234,4.328-1.022,9.032-3.172,12.982-3.643l.103.003Z" fill="#ba9856"/></g><g id="Layer_24"><path d="M104.264,264.201c-.271,1.413-1.305,6.484-4.565,7.681-4.147,1.521-11.326-3.437-15.981-13.79-1.005-3.611-2.717-11.702,0-21.287.929-3.276,3.557-12.07,12.111-18.88,1.979-1.575,8.914-7.08,18.843-7.44,7.593-.276,23.927,2.649,31.391,17.857,6.816,13.233,7.952,37.206-4.51,47.189-4.226,3.297-8.96,1.044-12.465-1.974-6.241-4.662-20.179-15.262-28.652-23.53-2.59-2.572-5.697-5.686-5.087-9.479.438-3.211,4.601-8.284,7.451-4.391,2.448,3.157,7.677,9.765,15.452,16.787,3.42,3.103,7.058,6.072,10.176,8.384,4.834,3.099,10.716,9.358,14.751,3.722,4.413-5.288,3.151-15.443.197-21.436-3.796-10.054-15.064-19.617-25.035-23.422-8.942-3.412-21.518,2.813-26.729,12.812-3.672,7.046-3.291,15.806-.031,21.763.682,1.247,2.311,4.224,5.798,6.614,2.683,1.839,5.3,2.532,6.885,2.823Z" fill="#311100"/><path d="M170.884,193.818c-.26.111-.413.491-.451,1.082-.06,1.934.403,4.077.484,6.032.604,5.687-1.484,12.38-8.199,12.525-5.436-.304-.767-6.29-.361-9.455,1.354-5.367.806-12.014-3.397-15.933-3.509-3.241-9.335-1.805-12.33,1.541-3.301,3.712-3.817,9.164-3.334,13.884.784,7.492,6.146,15.363,14.118,18.62,5.729,2.615,11.022,1.969,14.568-3.71,3.489-4.865,3.614-11.04,2.698-16.775-.501-2.412-1.549-7.399-3.723-7.834l-.073.024Z" fill="#3b1c00"/><path d="M155.825,210.106c-2.371,1.11-4.035-4.065-4.841-5.674-1.318-3.633-2.698-8.125-1.41-11.916.896-2.243,3.395-.788,4.568.397,3.868,3.707,5.297,12.536,1.792,17.111l-.109.083Z" fill="#f6f2e6"/><path d="M201.415,189.73c-1.328-.591-1.546-2.865-1.59-4.238-.393-2.709.043-20.626-3.138-21.997-2.543.28-4.161,3.417-6.335,4.48-2.227,1.297-4.585-.888-5.062-3.04-.44-1.601.578-3.129,1.706-4.163,2.028-1.982,5.509-4.383,7.092-6.397.274-.378.395-.722.413-1.064.067-9.395-9.454-46.689,7.127-51.311,2.152-.27,3.327,1.742,4.042,3.386,3.124,6.582,8.904,19.801,12.35,26.641.246.474.575,1.032,1.106,1.165,1.946.258,3.879-3.594,5.946-.545.698,1.026,1.104,2.499.769,3.767-.363,1.595-1.992,2.384-1.888,3.851.344,2.124,2.478,3.483,3.74,5.233,3.22,3.717,4.284,4.876,7.787,6.769.796.319,1.707.932,2.459.381,1.069-.834.881-3.133,2.174-3.77,1.198-.593,2.829.287,3.622,1.391.839,1.176.829,2.728.423,4.256-.73,3.617-4.725,6.968-7.897,7.265-7.145.795-12.834-4.529-17.046-9.686-1.416-1.595-2.791-4.03-5.084-4.274-.65-.049-1.255.094-1.827.358-2.358,1.192-5.185,4.026-7.534,5.837-3.999,3.025-2.445,3.963-.735,7.804,2.693,5.454,7.553,18.29,5.914,21.865-.838,3.441-4.663,6.871-8.402,6.092l-.132-.055Z" fill="#3b1c00"/><path d="M201.271,149.877c-2.894.208-2.875-4.247-3.342-7.084-.692-5.907-3.183-24.803-.44-29.234,1.262-1.176,2.628,2.587,3.219,3.502,2.949,6.297,7.752,15.106,9.839,22.204,1.138,4.429-2.581,7.464-6.288,9.576-1.052.551-2.047.967-2.839,1.031l-.149.005Z" fill="#f6f3e7"/><path d="M240.087,140.35c-.537-.623-.757-1.691-.801-3.036-.096-2.989.074-6.49-.1-9.518-.126-1.858-.786-2.522-2.079-3.797-1.132-1.139-2.127-2.488-2.808-3.966-.759-1.629-1.149-3.555-.65-5.269.741-2.884,4.26-5.034,6.73-2.827,1.937,1.629,2.915,5.839,5.592,3.757,2.11-1.412,3.422-4.105,5.588-5.5,1.889-1.303,4.029-.468,4.717,1.615,1.236,4.683.659,9.833,1.092,14.649.116,2.297-.036,4.562.728,6.737,2.548,5.767,6.67,2.29,6.575-2.794.061-1.565.05-2.996.658-3.749.784-1.092,2.271-.924,3.032.042.764.891.527,2.309.406,4.488-.346,4.623-1.574,11.923-5.876,14.165-5.658,2.53-10.955.435-12.983-5.504-.696-2.746-.275-6.043-.386-9.256,0-2.433,0-4.998,0-6.934.002-1.961.012-3.17-.681-3.143-1.225.199-2.724,1.634-3.567,2.709-.931,1.228-.947,2.623-.935,4.953,0,1.847,0,3.948,0,5.842-.052,3.795.288,6.103-1.158,6.836-.947.448-2.245.375-3.008-.405l-.085-.095Z" fill="#3b1c00"/><path d="M264.573,104.231c-.061.666-.09,1.438-.046,2.294.044.862.153,1.632.284,2.292.591.017,1.414-.023,2.358-.27.904-.237,1.615-.585,2.113-.877.528-.345.267,1.72.367,2.59.329,6.279.615,21.109,4.721,25.652,3.006,2.476,8.779,2.521,11.513-.789,1.649-1.87,5.961-8.625,5.781-14.996.047-1.823-2.184-3.737-2.993-1.72-.256,1.189-.094,2.599-.5,4.293-.786,3.105-2.304,6.076-5.392,6.187-1.894-.22-3.208-2.013-3.444-3.723-.524-3.079-2.203-13.488-1.913-18.869.047-.682.165-1.272.501-1.78.05-.075.234-.338.554-.599,1.609-1.315,5.056-1.283,6.025-3.014.286-.511.276-1.106.255-2.298-.023-1.346-.334-1.668-.501-1.794-.053-.04-.283-.269-.711-.22-1.466.167-3.994,1.991-5.499,1.941-.729-.656-.248-2.083-.4-4.215-.009-1.752-.02-3.791-.03-5.58-.007-1.215-.013-2.393-.019-3.56.002-1.916-.037-2.246-1.613-1.931-1.761.348-3.724.986-5.242,1.959-1.417.882-2.11,1.831-2.161,3.374-.068,2.699-.055,9.555-.096,12.038-.004.233.037.693-.165,1.226-.494,1.303-1.933,1.95-2.99,2.279-.252.037-.505.074-.757.111Z" fill="#3b1c00"/><circle cx="299.322" cy="81.413" r="5.489" fill="#3b1c00"/><path d="M295.762,94.933c1.664-2.286,7.62-2.461,8.636.771.313,4.195.028,14.693.121,21.164.097,2.176-.414,4.6.894,4.587.621-.057,1.627-.235,2.632-.868,2.004-1.263,2.742-3.542,2.947-4.291.541-1.987.055-3.225.989-3.839.39-.256,1-.386,1.509-.183,0,0,.577.229.937,1.035.542,1.215.031,6.522-3.802,12.817-3.03,4.975-9.428,8.186-13.595,2.604-.595-.852-.961-1.569-1.182-2.295-.354-1.162-.32-2.118-.311-2.424.058-1.941.121-13.354.224-29.078Z" fill="#3b1c00"/><path d="M315.825,108.736c-.544,1.674,2.674,2.968,3.804,1.825,1.616-1.573,2.854-4.086,3.808-6.319.245-.439.371-1.211.933-1.08,3.599,3.585,9.639,10.795,6.733,15.966-1.089,2.114-3.75,2.824-6.251,1.124-1.687-.906-3.216-3.19-4.594-4.236-.667-.462-1.3-.411-2.018.144-1.615,1.083-3.214,4.239-2.821,6.377.849,2.68,5.377,4.229,8.637,4.267,5.869.207,15.465-5.148,16.587-13.445.22-2.315-.098-4.659-1.311-6.583-1.041-1.811-3.389-5.742-5.45-8.262-1.085-1.354-1.885-2.108-2.223-2.841-.666-1.052.523-2.606,1.948-2.76,1.918-.514,4.133.592,5.399-.843,1.084-1.553.644-4.505-1.531-5.348-4.221-1.909-10.399.015-14.021,5.163-1.807,2.468-2.068,5.271-2.835,8.031-.515,1.716-1.583,4.695-3.116,6.588-.523.7-1.264,1.385-1.63,2.113l-.049.117Z" fill="#3b1c00"/><path d="M377.467,88.777c-.877.847-2.089,2.194-2.877.751-1.58-4.376-10.047-4.039-13.911-2.415-7.67,3.174-14.09,13.339-13.838,23.134.09,10.644,4.641,17.777,15.561,11.493,1.797-.73,4.005-4.396,5.919-2.312.751.788,1.158,1.271,1.839,1.984,3.358,3.954,5.481,3.605,9.509.759,2.388-1.413,5.885-4.81,7.635-7.881.876-1.33,1.783-4.663-.64-4.801-1.71.118-2.287,2.151-4.043,3.886-8.887,7.682-3.236-9.392-1.54-13.353,1.113-3.064,5.66-8.83,2.061-11.444-1.528-1.059-4.044-1.069-5.549.092l-.124.107Z" fill="#3b1c00"/><path d="M372.894,93.212c-.993-1.728-3.226-2.19-5.07-1.853-7.118,1.014-12.578,13.789-11.645,21.627.709,6.969,8.059,4.914,10.986.702,2.165-2.965,3.179-6.782,4.462-10.377.811-3.114,2.818-6.855,1.345-9.963l-.077-.136Z" fill="#f6f3e7"/><path d="M401.418,92.682c2.087-1.226,7.574.357,7.415,2.967-.065,1.128-.637,2.215-.885,3.323-.131.497-.212,1.312.143,1.421.505.336,2.13-.845,3.69-1.627,4.43-2.335,10.636-4.278,14.906-.668,7.735,5.832-18.772,27.078-6.424,24.99,2.448-.656,3.476-3.673,5.823-4.309,1.91-.561,3.692.952,3.016,2.737-1.511,3.748-5.557,7.391-9.467,8.793-5.679,2.565-14.574.639-14.074-7.024.233-3.35,2.931-6.885,4.713-9.801,1.266-2.001,2.7-4.262,3.84-6.078.775-1.374,2.617-3.813.905-4.824-2.283-.593-4.652,1.701-6.479,2.97-2.875,2.31-4.535,4.639-6.259,7.124-1.799,2.62-3.508,5.289-4.47,8.884-.406,1.239-.425,2.752-.977,3.88-.424.882-1.602,1.3-2.642,1.344-4.184.166-7.773-1.907-7.424-6.132.127-1.618.766-2.764,1.442-4.182,2.747-5.677,5.863-11.682,9.216-17.627,1.278-1.999,2.175-4.468,3.867-6.074l.126-.087Z" fill="#3b1c00"/><path d="M447.837,88.759c-.058-1.594-.969-3.561-.521-5.362.391-1.947,1.759-3.712,3.651-4.353,5.505-1.998,9.783,4.317,7.586,9.223-.92,2.199-2.84,4.092-5.832,5.941-1.253.762-2.644,1.416-4.065,1.777-2.821.723-5.435.011-5.637-.937-.068-.271.017-.511.181-.755,1.424-1.794,4.7-2.726,4.638-5.387v-.145Z" fill="#3b1c00"/><path d="M447.546,121.839c-1.291,1.197.89,3.894,2.433,3.447,2.177-.587,4.482-2.179,6.404-3.664.428-.264.913-.877,1.341-.489,1.397,4.884,3.16,14.122-1.896,17.224-1.981,1.316-4.651.64-6.007-2.063-1.032-1.613-1.255-4.352-1.949-5.937-.358-.728-.935-.992-1.832-.857-1.938.159-4.871,2.137-5.569,4.196-.564,2.754,2.636,6.313,5.465,7.933,5.025,3.039,16.014,3.036,21.036-3.663,1.32-1.915,2.184-4.116,2.061-6.387-.027-2.088-.163-6.666-.736-9.87-.288-1.711-.62-2.76-.558-3.564-.07-1.243,1.726-2.021,3.045-1.462,1.926.485,3.321,2.53,5.126,1.894,1.703-.828,2.756-3.621,1.268-5.417-2.757-3.723-9.09-5.052-14.76-2.32-2.78,1.275-4.374,3.597-6.387,5.634-1.286,1.248-3.669,3.33-5.931,4.236-.798.357-1.779.594-2.453,1.051l-.1.078Z" fill="#3b1c00"/><path d="M574.131,192.089c-1.188-.071-2.956-.053-2.434-1.571,2.119-4.025-3.69-9.888-7.402-11.592-7.333-3.416-18.89-1.319-25.795,5.329-7.623,7.093-9.78,15.072,1.936,18.771,1.709.81,5.806-.025,5.56,2.727-.075,1.06-.156,1.671-.223,2.631-.646,5.023,1.001,6.319,5.703,7.335,2.59.783,7.341,1.054,10.708.283,1.536-.248,4.537-1.797,3.044-3.63-1.209-1.151-3.056-.223-5.462-.34-11.387-1.316,4.651-8.527,8.625-9.923,2.943-1.223,10.095-1.762,9.614-6.075-.24-1.798-1.887-3.612-3.715-3.927l-.158-.019Z" fill="#3b1c00"/><path d="M567.924,191.73c.595-1.855-.54-3.764-1.996-4.867-5.412-4.446-18.222.064-23.265,5.91-4.564,5.111,1.751,9.036,6.716,8.359,3.563-.402,6.985-2.193,10.422-3.644,2.781-1.473,6.8-2.501,8.075-5.612l.048-.145Z" fill="#f6f3e7"/><path d="M597.23,268.36c.006-.283-.277-.579-.8-.856-1.737-.851-3.881-1.311-5.696-2.042-5.431-1.791-10.671-6.449-8.038-12.629,2.515-4.828,6.048,1.89,8.765,3.564,4.334,3.444,10.617,5.681,15.919,3.463,4.398-1.863,5.488-7.764,3.672-11.871-2.024-4.537-6.78-7.251-11.28-8.754-7.151-2.37-16.531-.724-22.781,5.2-4.742,4.144-6.332,9.234-2.616,14.804,2.997,5.183,8.573,7.839,14.176,9.365,2.404.536,7.381,1.635,8.672-.168l.008-.076Z" fill="#3b1c00"/><path d="M588.586,247.93c-.036-2.617,5.366-2.004,7.164-2.076,3.853.295,8.515.887,11.44,3.621,1.675,1.74-.68,3.418-2.243,3.999-4.971,1.999-13.605-.334-16.331-5.411l-.03-.134Z" fill="#f6f2e6"/><path d="M612.839,243.391c1.879,2.788,7.018,6.531,9.799,9.174,3.037,2.635,4.646,4.178,6.389,3.467,1.687-.791,2.82-2.78,3.041-4.596.251-2.776-2.759-3.858-4.96-4.594-2.971-.941-7.068-2.187-9.929-3.065-.932-.21-4.483-1.484-4.356-.444l.018.058Z" fill="#3b1c00"/><path d="M531.606,185.077c.765-.247,1.28-.891,1.309-1.596.002-.041.025-.912-.511-1.213-.666-.373-1.555.495-2.883,1.085-1.02.454-2.06.515-4.139.638-.615.036-4.063.241-7.043-.309-.703-.13-11.232-2.187-13.948-9.839-1.345-3.791-.481-7.387.525-9.801,3.07-7.362,15.219-20.608,29.423-25.509,4.166-1.469,7.996-2.756,12.205-2.994,3.318-.162,9.635-.01,12.221,3.337.088.114,2.113,2.813,1.562,5.635-.917,4.696-8.7,8.355-19.393,8.236-.278-.024-1.468-.098-2.288.718-.696.693-.727,1.631-.741,2.047-.087,2.6,2.536,5.866,5.881,7.023,2.547.881,4.777.285,7.176-.391,9.652-2.72,15.456-10.647,16.129-14.778.165-1.014.678-4.446-.943-8.171-1.891-4.345-5.519-6.373-8.15-7.846-6.055-3.39-12.088-3.581-15.467-3.388-5.343.271-13.624,1.404-22.436,5.745-2.007.989-7.186,3.693-12.703,8.559-3.614,3.188-5.773,5.892-6.249,6.495-1.838,2.329-4.396,5.627-6.101,10.54-.897,2.583-1.664,4.795-1.593,7.806.175,7.361,5.199,12.393,6.699,13.896,2.585,2.59,5.114,3.926,5.936,4.34,5.413,2.725,10.455,2.381,14.381,2.127,2.686-.174,6.605-.711,11.141-2.393Z" fill="#3b1c00"/><path d="M538.516,218.832c-.415-.394-1.342-.353-1.982-.174-2.563.657-4.471,2.769-4.895,5.129-1.96,8.921,8.617,11.681,14.856,11.6,5.424.123,7.845-.959,13.539-2.767,8.55-2.746,21.886-7.186,28.791-9.88,4.296-2.217,4.586,5.542,7.402,6.19,1.58.438,3.307-1.087,3.183-2.659.112-2.199-3.651-4.829-1.18-6.519,5.432-2.084,11.588-5.663,17.45-3.039,1.795.899,2.256,2.907.926,4.32-.734.957-1.647,2.1-1.573,3.371.085,2.262,3.015,3.12,4.801,2.14,2.251-.919,3.488-3.242,3.86-5.703.828-7.046-6.157-12.649-12.718-13.238-4.366-.519-8.54,1.048-12.895,2.527-3.596,1.265-5.675,2.399-8.588-.957-.987-1.017-1.823-2.078-3.089-2.127-1.521-.059-2.814,1.616-2.34,3.069.505,1.488,2.247,2.937.983,4.366-.766.907-2.116,1.51-3.659,2.187-4.502,1.858-9.593,3.124-13,3.947-4.482,1.016-7.555,1.979-15.47,4.411-4.099.937-11.678,5.071-14.486.299-.939-1.774.407-3.669.525-5.349.005-.385-.079-.782-.342-1.053l-.097-.092Z" fill="#3b1c00"/></g><g id="Layer_25"><path d="M155.072,570.945c-.768.739-1.615,1.228-2.544,1.461-.929.232-1.896.241-2.9.021-1.004-.22-2.009-.655-3.009-1.307-1-.652-1.953-1.478-2.851-2.476-.629-.698-1.16-1.392-1.596-2.079-.436-.687-.789-1.33-1.061-1.928-.272-.598-.472-1.124-.599-1.577-.128-.453-.192-.789-.193-1.007-.001-.218.054-.427.168-.628.113-.201.308-.42.584-.655.196-.167.368-.296.516-.384.148-.089.28-.145.398-.17.117-.025.22-.018.307.02.087.039.167.101.242.188.13.152.239.431.327.838.088.407.231.903.431,1.49.2.586.49,1.251.873,1.994.383.742.929,1.51,1.637,2.297.537.595,1.095,1.079,1.673,1.45.578.371,1.147.621,1.707.752.56.13,1.098.128,1.614-.006.516-.134.992-.406,1.428-.814.47-.441.752-.946.848-1.513.096-.568.076-1.179-.058-1.833-.134-.655-.341-1.349-.621-2.083-.279-.734-.564-1.486-.852-2.255-.288-.769-.534-1.545-.739-2.327-.205-.782-.308-1.55-.309-2.301-.001-.751.135-1.477.407-2.175.273-.698.762-1.348,1.464-1.951.72-.618,1.494-1.017,2.318-1.2.824-.184,1.657-.174,2.5.025.842.199,1.681.573,2.52,1.12.839.547,1.631,1.232,2.38,2.057.383.422.738.875,1.064,1.358.326.484.609.962.85,1.435.24.473.432.916.572,1.331.141.414.214.705.22.874.006.168,0,.289-.02.362-.019.074-.056.154-.11.242-.054.088-.128.185-.22.292-.093.106-.22.237-.381.39-.153.145-.296.267-.428.366-.132.099-.253.172-.361.22-.109.047-.207.062-.296.045-.089-.017-.166-.06-.23-.128-.102-.107-.201-.332-.297-.674-.097-.342-.226-.749-.387-1.222-.161-.473-.39-.995-.687-1.567-.297-.573-.707-1.145-1.229-1.72-.486-.535-.971-.947-1.456-1.233-.485-.287-.948-.468-1.391-.543-.443-.075-.868-.052-1.274.073-.407.124-.773.329-1.098.616-.475.418-.771.906-.887,1.465-.116.559-.116,1.169,0,1.828.117.659.311,1.358.583,2.095.271.737.554,1.485.846,2.245.293.76.557,1.528.795,2.307.238.778.378,1.542.42,2.294.042.751-.053,1.484-.286,2.198-.233.714-.673,1.385-1.324,2.011Z"/><path d="M166.031,589.835c-.063.07-.134.112-.213.127-.08.015-.182-.003-.308-.053-.126-.05-.272-.136-.439-.255-.167-.12-.36-.28-.58-.479-.24-.219-.427-.406-.562-.561-.135-.156-.232-.292-.288-.408-.057-.116-.079-.212-.066-.288.012-.077.051-.149.114-.218.471-.514.943-1.028,1.414-1.542-1.467.003-2.746-.194-3.83-.588-1.085-.394-2.024-.972-2.812-1.73-.921-.887-1.57-1.767-1.947-2.631-.377-.864-.542-1.702-.497-2.51.044-.808.271-1.578.676-2.309.405-.732,1.016-1.501,1.83-2.311,2.269-2.256,4.537-4.512,6.806-6.768.066-.066.139-.105.218-.117.079-.012.184.011.316.069.132.058.28.157.445.297.164.139.36.323.588.551.228.227.412.422.552.586.14.163.237.308.291.436.053.127.077.232.07.316-.007.084-.043.159-.109.226-2.151,2.192-4.301,4.383-6.452,6.575-.648.661-1.111,1.246-1.386,1.756-.275.51-.432,1.022-.47,1.534-.038.512.049,1.023.263,1.532.213.509.564.998,1.052,1.466.63.604,1.438,1.015,2.418,1.229.98.214,2.161.282,3.54.199,2.495-2.714,4.99-5.427,7.484-8.141.064-.069.134-.112.212-.127.078-.016.184.002.317.053.133.051.282.14.446.267.164.126.368.302.614.526.236.215.426.4.572.556.145.156.245.293.299.412.054.119.081.223.082.311.001.088-.029.167-.092.237-3.522,3.926-7.045,7.851-10.567,11.777Z"/><path d="M188.526,589.529c-.161.202-.3.368-.42.497-.12.129-.226.221-.319.274-.093.053-.179.082-.259.086-.08.004-.161-.027-.243-.093-.083-.066-.168-.168-.253-.305-.087-.137-.188-.286-.305-.448-.117-.162-.253-.336-.409-.523-.156-.187-.342-.368-.558-.544-.257-.21-.546-.37-.867-.481-.321-.112-.703-.175-1.146-.192-.444-.017-.956.023-1.539.117-.582.095-1.261.238-2.035.429-2.228,2.66-4.455,5.32-6.683,7.98-.061.072-.133.114-.217.128-.084.013-.19-.003-.316-.048-.127-.046-.283-.132-.469-.258-.186-.127-.413-.304-.68-.531-.256-.218-.462-.409-.617-.573-.155-.164-.268-.307-.338-.429-.071-.123-.103-.224-.099-.305.004-.081.038-.157.099-.228,3.435-4.003,6.87-8.006,10.304-12.009.061-.071.128-.118.2-.141.072-.023.17-.016.295.022.124.037.263.11.414.217.152.107.343.259.574.456.221.188.399.351.534.488.134.137.225.26.272.368.046.108.067.202.061.281-.006.079-.039.155-.1.227-.494.588-.987,1.176-1.481,1.764.784-.167,1.468-.267,2.053-.297.585-.031,1.097-.014,1.537.054.44.067.832.185,1.178.355.345.169.665.374.961.615.132.107.277.237.435.387.157.15.313.317.468.502.155.185.289.36.401.525.112.165.181.295.205.39.025.095.032.172.019.229-.012.058-.036.125-.072.201-.036.077-.1.179-.193.307-.094.128-.224.298-.391.509Z"/><path d="M189.124,609.124c-1.81,1.082-3.632,2.152-5.466,3.208-.18.1-.438.087-.776-.039-.338-.127-.79-.402-1.356-.828-.295-.222-.524-.413-.686-.574-.163-.16-.272-.305-.324-.434-.054-.129-.051-.245.009-.347.06-.102.173-.192.34-.272,1.806-.931,3.601-1.875,5.385-2.833-.072-.113-.121-.244-.146-.395-.025-.151-.02-.286.017-.405,1.241-5.37,2.587-10.694,4.037-15.967.069-.259.148-.443.234-.554.086-.111.197-.166.33-.166.133,0,.302.062.506.185.204.122.46.304.77.546.31.241.548.437.713.587.165.15.286.283.361.401.075.117.11.229.103.334-.007.106-.03.239-.071.4-1.232,4.388-2.395,8.81-3.488,13.263.016.012.033.024.049.037,3.886-2.422,7.717-4.902,11.494-7.439.193-.136.353-.199.48-.188.127.011.29.069.487.172.197.103.466.275.807.514.297.208.534.391.71.549.175.157.285.301.329.432.044.13.026.253-.054.369-.08.116-.212.238-.396.367-4.712,3.118-9.512,6.145-14.398,9.078Z"/><path d="M209.312,622.057c-.073.12-.174.182-.304.186-.13.003-.286-.03-.467-.099-.182-.07-.43-.201-.745-.394-.304-.186-.536-.35-.698-.492-.162-.141-.265-.267-.309-.378-.044-.11-.029-.225.045-.345.278-.448.556-.897.834-1.345-1.07.205-2.136.215-3.193.031-1.057-.185-2.056-.581-2.989-1.187-.818-.532-1.497-1.108-2.036-1.725-.539-.617-.924-1.253-1.156-1.903-.232-.651-.307-1.31-.225-1.978.081-.668.338-1.316.766-1.946.501-.737,1.109-1.258,1.822-1.568.713-.31,1.511-.428,2.395-.358.885.07,1.851.322,2.903.751,1.052.43,2.162,1.019,3.335,1.764.693.44,1.387.877,2.083,1.311.217-.348.433-.697.65-1.045.322-.518.545-1.014.671-1.488.126-.474.135-.928.03-1.361-.106-.433-.331-.852-.675-1.257-.344-.406-.829-.808-1.452-1.209-.668-.43-1.312-.748-1.934-.952-.623-.204-1.189-.354-1.7-.447-.511-.093-.947-.159-1.309-.197-.361-.037-.608-.101-.738-.189-.088-.059-.15-.13-.189-.213-.039-.083-.056-.18-.053-.29.003-.111.036-.235.096-.37.06-.136.139-.277.238-.423.164-.243.313-.422.446-.537.133-.115.315-.187.546-.215.23-.028.582-.007,1.052.061.47.068.984.186,1.542.352.558.166,1.143.383,1.756.65.613.267,1.201.582,1.766.944,1.053.676,1.883,1.353,2.491,2.037.607.684,1.013,1.379,1.215,2.088.202.709.218,1.443.046,2.203-.173.76-.512,1.562-1.022,2.404-1.844,3.043-3.688,6.086-5.533,9.129ZM210.268,614.159c-.797-.497-1.593-.998-2.386-1.504-.766-.488-1.463-.858-2.097-1.108-.634-.251-1.208-.388-1.722-.411-.514-.022-.96.062-1.338.255-.378.193-.7.489-.965.89-.453.684-.564,1.396-.326,2.136.238.74.815,1.41,1.731,2.002.743.481,1.539.761,2.383.838.844.077,1.827-.004,2.946-.245.591-.951,1.183-1.902,1.774-2.852Z"/><path d="M228.44,632.669c-.042.084-.101.146-.175.187-.074.041-.172.054-.293.038-.121-.016-.271-.056-.451-.121-.18-.065-.39-.16-.631-.284-.253-.13-.459-.249-.616-.357-.158-.108-.282-.208-.371-.301-.09-.093-.142-.183-.158-.27-.016-.087-.002-.173.041-.256.322-.619.644-1.238.966-1.857-1.263.36-2.474.519-3.626.475-1.153-.043-2.275-.363-3.361-.959-1.181-.648-2.077-1.408-2.683-2.269-.607-.861-.974-1.773-1.101-2.732-.127-.959-.045-1.955.245-2.987.29-1.032.725-2.044,1.304-3.036.685-1.175,1.446-2.153,2.279-2.937.832-.784,1.716-1.353,2.651-1.708.935-.356,1.908-.486,2.923-.392,1.015.094,2.052.432,3.119,1.015.886.485,1.603,1.1,2.152,1.852.55.752,1.006,1.665,1.373,2.743,1.418-2.718,2.837-5.436,4.255-8.154.038-.073.094-.133.168-.18.074-.048.175-.061.304-.04.129.021.286.063.471.125.184.062.409.162.674.298.275.142.496.271.659.387.163.116.286.218.366.305.081.087.13.177.145.271.015.093.005.176-.032.25-3.532,6.964-7.064,13.928-10.596,20.892ZM230.594,621.259c-.323-1.266-.718-2.314-1.191-3.144-.473-.83-1.092-1.454-1.862-1.874-.714-.389-1.404-.569-2.072-.538-.668.031-1.3.208-1.893.534-.593.325-1.14.764-1.641,1.316-.5.552-.936,1.154-1.306,1.807-.393.694-.717,1.406-.97,2.139-.253.732-.374,1.442-.36,2.129.014.687.186,1.328.519,1.923.333.594.884,1.104,1.654,1.524.391.213.792.371,1.204.474.411.102.865.147,1.361.132.495-.014,1.042-.085,1.641-.213.598-.128,1.261-.327,1.987-.595.976-1.871,1.953-3.742,2.929-5.613Z"/><path d="M246.457,641.049c-.055.13-.146.206-.272.228-.127.023-.284.014-.471-.028-.187-.042-.448-.133-.783-.277-.322-.138-.572-.265-.75-.38-.177-.115-.296-.224-.354-.326-.058-.102-.059-.218-.003-.347.211-.484.421-.967.632-1.451-1.019.363-2.059.533-3.118.511-1.059-.023-2.089-.262-3.084-.718-.872-.4-1.614-.865-2.225-1.391-.611-.526-1.073-1.093-1.388-1.699-.315-.605-.477-1.244-.489-1.913-.012-.67.151-1.347.484-2.032.39-.801.913-1.407,1.567-1.82.654-.413,1.418-.651,2.291-.716.873-.065,1.853.036,2.939.3,1.087.264,2.252.676,3.501,1.234.738.329,1.476.656,2.216.978.164-.376.329-.752.493-1.128.244-.559.395-1.081.453-1.568.058-.486.006-.935-.156-1.346-.163-.411-.439-.79-.831-1.137-.392-.348-.92-.671-1.584-.973-.712-.323-1.384-.538-2.02-.645-.636-.107-1.21-.168-1.722-.183-.512-.014-.948-.013-1.306.005-.358.018-.608-.007-.747-.074-.093-.045-.165-.105-.214-.181-.049-.076-.08-.168-.091-.278-.012-.11.002-.236.043-.379.04-.143.099-.294.175-.453.127-.264.248-.463.362-.597.114-.134.282-.232.504-.294.222-.063.568-.095,1.036-.1.469-.004.987.034,1.555.112.568.079,1.17.204,1.805.374.635.17,1.253.391,1.854.663,1.121.507,2.026,1.049,2.713,1.632.687.583,1.178,1.207,1.473,1.876.295.669.411,1.39.346,2.165-.065.775-.287,1.616-.672,2.523-1.388,3.276-2.776,6.552-4.165,9.829ZM246.314,633.122c-.847-.37-1.694-.744-2.538-1.122-.815-.365-1.547-.624-2.201-.775-.654-.151-1.233-.2-1.739-.144-.506.056-.93.206-1.273.454-.343.247-.617.588-.822,1.023-.35.742-.361,1.46-.028,2.153.333.692.988,1.265,1.964,1.71.792.361,1.608.517,2.444.466.835-.051,1.785-.279,2.847-.685.449-1.026.897-2.052,1.346-3.078Z"/><path d="M266.976,633.148c-.087.243-.165.445-.237.606-.072.161-.142.282-.211.363-.07.081-.14.137-.212.167-.072.03-.156.028-.252-.006-.096-.034-.204-.101-.324-.2-.12-.099-.259-.205-.415-.318-.156-.112-.333-.23-.533-.352-.199-.122-.425-.23-.676-.322-.3-.11-.612-.163-.94-.16-.328.003-.698.072-1.11.205-.413.133-.871.342-1.378.627-.506.284-1.086.647-1.74,1.086-1.249,3.237-2.499,6.475-3.748,9.712-.034.088-.088.151-.161.193-.073.041-.175.061-.304.062-.13,0-.3-.028-.508-.083-.208-.056-.47-.145-.783-.267-.3-.117-.545-.227-.737-.327-.191-.101-.337-.196-.439-.287-.102-.091-.161-.174-.181-.252-.02-.077-.012-.159.022-.247,1.956-4.9,3.911-9.8,5.867-14.7.034-.087.082-.154.141-.199.059-.046.152-.072.277-.079.125-.007.274.014.445.063.171.049.392.126.663.232.259.102.471.193.636.276.164.083.284.167.36.253.075.086.121.166.14.243.018.076.01.158-.024.245-.277.716-.554,1.432-.832,2.148.67-.42,1.268-.744,1.796-.969.527-.226,1.003-.382,1.427-.466.423-.085.82-.106,1.188-.063.368.043.724.127,1.068.253.153.056.326.128.515.216.189.088.383.192.581.313.198.121.373.24.526.357.152.117.254.216.306.296.052.081.081.15.087.208.006.058.004.129-.006.213-.009.084-.039.201-.086.352-.047.151-.116.354-.207.608Z"/><path d="M276.913,647.435c-.234.774-.604,1.416-1.111,1.924-.507.508-1.124.878-1.851,1.108-.726.23-1.539.321-2.434.271-.896-.05-1.842-.237-2.835-.562-.611-.2-1.178-.435-1.703-.703-.524-.268-.983-.541-1.377-.817-.393-.276-.717-.537-.972-.78-.255-.243-.433-.445-.533-.603-.1-.159-.147-.349-.139-.57.006-.221.071-.503.191-.846.073-.21.148-.383.224-.518.076-.135.148-.24.216-.316.068-.075.143-.121.226-.135.081-.015.167-.007.254.023.138.048.314.193.532.435.217.242.492.52.827.832.334.312.747.634,1.238.966.491.331,1.09.614,1.798.845.53.174,1.027.279,1.489.317.462.038.882.009,1.26-.087.378-.096.7-.268.965-.516.265-.248.462-.58.593-.994.134-.425.124-.821-.028-1.188-.152-.367-.391-.726-.719-1.076-.328-.35-.711-.692-1.151-1.026-.44-.334-.892-.682-1.355-1.044-.463-.363-.903-.748-1.322-1.154-.418-.407-.764-.85-1.038-1.328-.274-.478-.448-.997-.519-1.555-.072-.559.009-1.17.241-1.834.205-.587.525-1.105.959-1.556.433-.452.966-.795,1.596-1.032.63-.237,1.354-.354,2.172-.353.818,0,1.715.161,2.698.478.431.139.852.31,1.262.514.411.204.775.41,1.092.62.317.209.581.411.792.605.21.194.366.355.464.483.099.128.16.233.182.313.022.08.029.165.021.255-.008.09-.021.199-.041.328-.019.129-.057.283-.112.462-.058.191-.118.353-.179.488-.061.135-.127.24-.197.317-.07.077-.142.125-.214.146-.073.021-.146.02-.219-.003-.109-.033-.249-.144-.417-.331-.169-.187-.395-.401-.679-.643-.284-.242-.628-.494-1.03-.756-.403-.263-.888-.485-1.455-.668-.507-.164-.971-.256-1.392-.277-.421-.021-.788.024-1.1.137-.313.112-.577.28-.794.505-.217.224-.378.492-.483.803-.146.433-.148.838-.002,1.214.145.376.376.74.694,1.092.318.352.7.699,1.145,1.041.446.342.9.691,1.363,1.047.464.356.915.732,1.355,1.127.44.395.808.821,1.102,1.279.294.458.492.959.593,1.504.101.545.054,1.143-.143,1.793Z"/><path d="M295.187,656.694c-.021.091-.065.163-.131.214-.066.051-.163.086-.29.105-.128.019-.298.016-.511-.008-.213-.025-.475-.073-.787-.145-.325-.075-.588-.149-.79-.221-.202-.072-.356-.144-.461-.217-.105-.073-.178-.148-.214-.222-.037-.075-.044-.158-.022-.249.72-3.003,1.44-6.007,2.16-9.01.21-.878.305-1.602.285-2.173-.02-.571-.126-1.085-.316-1.541-.191-.456-.484-.841-.882-1.156-.398-.315-.891-.546-1.481-.695-.761-.192-1.585-.137-2.477.163-.893.3-1.888.818-2.99,1.552-.969,3.557-1.938,7.114-2.907,10.671-.025.09-.072.16-.14.208-.068.048-.167.079-.295.093-.129.014-.299.004-.511-.03-.212-.034-.479-.095-.801-.184-.308-.085-.562-.168-.762-.249-.199-.08-.354-.16-.463-.239-.109-.08-.177-.157-.205-.231-.027-.075-.028-.157-.002-.247,2.144-7.531,4.288-15.062,6.432-22.593.026-.09.069-.163.129-.219.061-.056.152-.091.278-.104.124-.014.284-.005.479.025.195.03.433.085.716.163.295.082.533.159.715.233.182.074.32.148.414.222.094.074.155.151.184.232.028.081.031.166.006.257-.83,3.048-1.661,6.096-2.491,9.144,1.1-.613,2.138-1.013,3.123-1.199.984-.186,1.918-.169,2.806.053,1.095.273,1.975.67,2.643,1.197.668.527,1.167,1.134,1.5,1.824.331.69.511,1.449.537,2.279.025.829-.087,1.798-.339,2.907-.713,3.131-1.426,6.263-2.14,9.394Z"/><path d="M314.33,660.372c-.022.139-.091.235-.207.288-.116.053-.269.082-.458.088-.189.005-.461-.02-.815-.077-.341-.055-.611-.117-.808-.185-.198-.068-.336-.145-.416-.229-.08-.085-.109-.196-.085-.335.087-.52.175-1.04.262-1.56-.891.6-1.846,1.02-2.866,1.257-1.02.237-2.062.257-3.122.059-.93-.174-1.749-.441-2.457-.801-.708-.36-1.285-.795-1.729-1.304-.444-.509-.75-1.086-.918-1.732-.169-.646-.173-1.341-.016-2.087.184-.872.541-1.587,1.07-2.148.528-.561,1.203-.979,2.023-1.257.82-.278,1.781-.42,2.883-.431,1.102-.011,2.315.103,3.643.338.784.139,1.569.274,2.354.406.069-.404.137-.809.206-1.213.102-.601.123-1.144.063-1.63-.059-.485-.216-.907-.468-1.266-.253-.359-.608-.658-1.065-.899-.457-.241-1.039-.425-1.747-.554-.757-.138-1.452-.182-2.086-.13-.634.052-1.198.134-1.691.246-.493.112-.909.22-1.248.326-.338.105-.583.143-.732.112-.1-.02-.182-.061-.247-.122-.065-.061-.116-.143-.153-.247-.037-.103-.053-.229-.048-.378.004-.149.025-.309.061-.481.06-.287.128-.509.206-.667.078-.158.216-.294.413-.409.197-.115.52-.232.967-.351.447-.119.952-.21,1.514-.273.562-.063,1.167-.09,1.816-.081.649.009,1.292.072,1.932.188,1.194.217,2.188.52,2.984.917.796.397,1.414.881,1.855,1.458.441.576.722,1.247.844,2.013.122.767.107,1.636-.046,2.609-.555,3.513-1.11,7.027-1.665,10.54ZM312.316,652.725c-.899-.151-1.798-.307-2.696-.467-.867-.154-1.629-.226-2.291-.212-.662.014-1.228.109-1.699.287-.471.178-.841.428-1.111.752-.27.323-.452.721-.545,1.192-.16.805-.002,1.502.481,2.091.482.589,1.245.983,2.284,1.175.844.156,1.662.107,2.45-.147.788-.254,1.644-.707,2.565-1.36.187-1.104.374-2.207.561-3.311Z"/><path d="M335.604,662.891c-.008.093-.042.17-.099.23-.058.06-.149.108-.272.145-.123.037-.292.058-.505.063-.213.005-.479-.006-.796-.033-.331-.029-.6-.065-.81-.107-.209-.042-.371-.093-.485-.15-.114-.058-.195-.121-.242-.19-.047-.069-.066-.15-.057-.244.29-3.074.58-6.149.87-9.223.085-.898.077-1.629-.023-2.192-.1-.563-.276-1.056-.527-1.481-.251-.425-.595-.764-1.032-1.02-.436-.256-.955-.415-1.557-.48-.777-.083-1.581.087-2.419.51-.838.422-1.746,1.076-2.729,1.957-.458,3.657-.916,7.315-1.373,10.972-.012.093-.048.168-.109.226-.061.057-.153.102-.277.134-.125.032-.294.046-.508.042-.214-.003-.485-.026-.815-.069-.316-.041-.578-.087-.785-.139-.207-.051-.37-.108-.489-.172-.119-.063-.196-.13-.234-.2-.038-.07-.049-.152-.037-.244.714-5.225,1.429-10.451,2.143-15.676.013-.093.042-.169.088-.228.047-.059.128-.107.247-.144.119-.037.266-.053.442-.047.176.006.406.027.692.064.273.036.498.073.676.114.177.04.312.093.405.158.092.065.156.132.192.201.036.069.048.151.035.244-.087.692-.175,1.384-.262,2.075,1.077-.869,2.107-1.48,3.1-1.832.993-.352,1.963-.478,2.919-.379,1.118.116,2.041.386,2.773.813.732.428,1.31.958,1.734,1.595.423.637.707,1.363.849,2.18.141.817.167,1.786.074,2.908-.266,3.206-.531,6.412-.797,9.618Z"/><path d="M369.624,663.68c.003.094-.02.177-.072.249-.05.072-.142.131-.273.176-.131.045-.304.086-.523.122-.219.036-.485.059-.803.068-.345.01-.624.003-.837-.021-.213-.024-.386-.055-.519-.093-.133-.038-.228-.091-.282-.16-.056-.069-.083-.15-.086-.244-.078-3.362-.155-6.725-.233-10.087-3.76.086-7.522.097-11.283.033-.058,3.363-.116,6.726-.174,10.088-.002.094-.03.175-.084.245-.054.069-.147.123-.281.162-.133.039-.309.07-.529.095-.219.025-.495.034-.826.026-.319-.007-.59-.029-.814-.064-.224-.035-.403-.075-.534-.12-.132-.045-.223-.103-.274-.175-.051-.072-.075-.155-.072-.248.211-7.274.422-14.549.633-21.823.003-.094.029-.175.081-.244.051-.069.138-.122.261-.16.123-.038.289-.068.497-.092.208-.024.458-.032.752-.026.305.007.557.027.759.06.201.033.362.072.483.115.122.043.206.1.254.172.048.071.071.154.069.247-.052,3.035-.105,6.069-.157,9.104,3.725.064,7.451.053,11.176-.033-.07-3.034-.14-6.069-.211-9.103-.002-.094.02-.176.068-.248.046-.071.132-.129.253-.173.12-.044.279-.083.473-.117.195-.034.45-.056.768-.065.294-.008.54-.001.742.022.203.023.366.053.488.09.124.037.212.09.262.158.053.069.079.15.083.243.254,7.273.507,14.546.761,21.819Z"/><path d="M390.33,653.599c.05.454-.04.791-.27,1.011-.23.219-.507.346-.83.38-3.805.399-7.618.721-11.434.966.057.877.206,1.66.447,2.349.242.689.61,1.269,1.104,1.741.494.471,1.12.815,1.879,1.028.758.213,1.673.277,2.741.187.844-.071,1.59-.2,2.238-.383.647-.183,1.202-.375,1.667-.574.465-.199.846-.376,1.141-.53.297-.154.523-.24.679-.256.092-.01.177.002.253.035.076.033.139.088.187.166.048.077.089.188.125.331.035.144.065.32.088.53.016.151.024.283.022.395-.002.112-.008.213-.017.302-.01.09-.034.172-.074.247-.038.075-.091.148-.155.22-.066.072-.269.199-.609.382-.34.182-.787.372-1.34.568-.554.196-1.2.384-1.935.563-.737.179-1.53.305-2.375.375-1.469.122-2.772.038-3.901-.247-1.13-.285-2.092-.764-2.884-1.433-.794-.668-1.409-1.532-1.844-2.588-.437-1.056-.691-2.298-.767-3.726-.072-1.357.056-2.587.378-3.691.321-1.103.814-2.052,1.478-2.849.664-.797,1.479-1.431,2.449-1.904.97-.473,2.067-.758,3.299-.859,1.319-.108,2.458-.011,3.424.298.965.309,1.783.766,2.454,1.374.67.608,1.198,1.348,1.58,2.22.382.872.631,1.82.745,2.846.019.175.039.349.058.524ZM387.062,653.071c-.112-1.52-.598-2.673-1.445-3.464-.849-.792-2.018-1.12-3.519-.997-.77.063-1.435.249-1.996.561-.562.312-1.024.703-1.387,1.174-.363.471-.633,1.009-.812,1.614-.178.605-.26,1.229-.244,1.874,3.138-.202,6.273-.456,9.404-.762Z"/><path d="M396.906,640.117c.094.673.026,1.15-.21,1.431-.235.281-.715.471-1.438.567-.711.094-1.215.037-1.508-.168-.293-.205-.482-.639-.565-1.302-.085-.674-.009-1.15.226-1.428.235-.278.71-.462,1.424-.557.701-.093,1.198-.04,1.492.162.294.202.487.634.58,1.295ZM399.478,661.129c.013.093-.002.175-.046.246-.044.071-.122.138-.233.201-.112.063-.272.12-.479.172-.208.052-.476.1-.805.143-.316.042-.582.065-.795.069-.214.004-.386-.009-.518-.04-.132-.03-.224-.075-.278-.133-.054-.058-.088-.134-.099-.227-.668-5.231-1.336-10.463-2.004-15.694-.011-.081.002-.16.036-.235.034-.075.107-.144.22-.205.112-.062.266-.117.461-.166.195-.049.442-.093.739-.132.309-.041.565-.064.767-.067.201-.004.361.01.479.041.118.031.206.078.266.141.06.063.094.135.106.216.727,5.224,1.454,10.447,2.182,15.671Z"/><path d="M417.036,642.734c.086.401.09.703.01.906-.08.203-.212.323-.398.363-.798.168-1.596.332-2.396.492.517.326.915.721,1.192,1.185.278.464.472.965.584,1.504.185.895.193,1.719.018,2.473-.175.753-.508,1.428-1.006,2.022-.496.594-1.129,1.098-1.899,1.507-.769.409-1.656.706-2.656.886-.705.127-1.392.162-2.055.105-.664-.057-1.191-.185-1.579-.382-.195.247-.345.515-.448.805-.105.291-.127.609-.069.956.067.405.332.706.798.901.464.196,1.049.246,1.752.147,1.53-.206,3.06-.424,4.588-.655.869-.141,1.683-.19,2.444-.144.761.046,1.442.189,2.046.429.602.241,1.108.584,1.514,1.032.406.448.684,1.009.828,1.685.152.711.126,1.423-.08,2.137-.207.714-.613,1.389-1.221,2.022-.609.633-1.438,1.2-2.488,1.697-1.052.497-2.333.886-3.844,1.16-1.457.263-2.718.37-3.777.328-1.06-.042-1.948-.199-2.661-.465-.713-.266-1.256-.636-1.628-1.107-.373-.47-.605-1.007-.697-1.61-.059-.382-.062-.761-.013-1.136.051-.375.158-.741.325-1.099.165-.358.385-.709.66-1.055.273-.346.595-.696.965-1.053-.687-.186-1.216-.477-1.591-.869-.375-.392-.601-.844-.68-1.353-.11-.706-.048-1.362.186-1.968.233-.606.55-1.166.952-1.682-.465-.364-.855-.798-1.169-1.3-.314-.502-.53-1.136-.65-1.9-.14-.891-.102-1.716.11-2.473.213-.757.565-1.425,1.056-2.003.491-.579,1.113-1.065,1.864-1.461.753-.396,1.594-.677,2.53-.846.504-.091.98-.152,1.427-.181.446-.029.869-.035,1.268-.015,1.674-.319,3.345-.654,5.014-1.005.208-.044.385.018.53.185.144.167.259.445.342.835ZM417.099,659.774c-.134-.666-.547-1.118-1.239-1.358-.691-.24-1.563-.271-2.622-.096-1.526.238-3.052.465-4.58.679-.368.36-.665.693-.889.997-.224.305-.396.589-.513.852-.118.263-.189.515-.209.756-.022.241-.012.483.028.726.124.751.653,1.251,1.595,1.491.941.24,2.198.224,3.763-.06.996-.181,1.812-.42,2.448-.714.636-.294,1.132-.62,1.486-.976.354-.356.584-.73.691-1.122.107-.392.119-.783.04-1.173ZM413.062,647.794c-.207-1.058-.684-1.822-1.426-2.295-.742-.473-1.687-.602-2.841-.394-.596.107-1.097.291-1.507.553-.409.262-.732.579-.97.952-.238.373-.394.783-.466,1.229-.073.446-.071.9.007,1.362.173,1.028.628,1.785,1.371,2.264.742.48,1.696.618,2.855.409.622-.113,1.147-.302,1.571-.566.423-.264.753-.583.99-.956.236-.373.387-.781.451-1.223.064-.442.052-.888-.036-1.336Z"/><path d="M439.311,652.755c.026.09.021.174-.012.25-.034.077-.101.154-.204.232-.102.078-.253.157-.453.237-.199.08-.453.164-.762.25-.321.09-.588.151-.801.185-.212.034-.383.044-.51.031-.128-.013-.226-.044-.295-.093-.069-.048-.114-.118-.14-.208-.817-2.979-1.633-5.958-2.45-8.936-.239-.87-.506-1.551-.799-2.042-.293-.491-.633-.891-1.02-1.2-.387-.308-.831-.505-1.333-.591-.502-.086-1.047-.052-1.635.1-.76.196-1.456.639-2.094,1.33-.638.691-1.26,1.621-1.872,2.793.865,3.583,1.73,7.167,2.595,10.75.022.091.015.174-.021.249-.037.075-.108.149-.213.223-.105.073-.26.146-.461.218-.202.072-.466.146-.79.222-.312.073-.575.122-.786.147-.214.025-.386.029-.521.011-.134-.017-.231-.052-.29-.105-.059-.053-.101-.124-.121-.216-1.751-7.631-3.502-15.263-5.253-22.894-.021-.091-.018-.176.008-.254.025-.078.09-.153.192-.224.102-.072.246-.141.431-.207.184-.067.419-.133.705-.2.296-.069.542-.115.738-.138.195-.022.352-.023.469-.003.118.02.209.059.273.116.064.057.106.131.129.222.741,3.071,1.483,6.141,2.224,9.212.668-1.064,1.385-1.913,2.159-2.547.774-.635,1.6-1.067,2.487-1.298,1.093-.285,2.057-.359,2.898-.217.841.142,1.573.434,2.197.881.625.446,1.149,1.026,1.572,1.74.422.715.791,1.618,1.105,2.711.884,3.088,1.769,6.175,2.653,9.263Z"/><path d="M453.261,647.173c.11.322.172.585.186.791.014.206-.013.37-.085.493-.071.123-.195.258-.37.404-.177.146-.387.288-.629.426-.244.138-.506.272-.787.402-.281.131-.568.244-.861.34-.891.293-1.69.437-2.392.434-.703-.003-1.326-.151-1.864-.443-.539-.291-1-.732-1.383-1.319-.384-.587-.711-1.317-.982-2.19-.914-2.944-1.828-5.889-2.743-8.833-.765.236-1.53.469-2.297.698-.182.054-.355.008-.518-.139-.163-.147-.305-.423-.426-.827-.064-.213-.102-.398-.116-.553-.013-.155-.01-.288.01-.397.019-.109.062-.196.13-.259.067-.063.147-.108.244-.137.753-.226,1.506-.455,2.258-.687-.372-1.198-.744-2.396-1.116-3.594-.024-.078-.026-.158-.006-.238.02-.08.079-.163.176-.248.097-.085.236-.169.419-.25.182-.081.415-.167.699-.256.297-.093.541-.159.738-.197.196-.038.356-.049.478-.033.122.016.218.05.287.102.069.052.115.117.141.195.386,1.194.771,2.387,1.157,3.581,1.386-.445,2.769-.902,4.149-1.37.096-.032.185-.041.271-.027.085.015.17.06.257.135.086.076.164.182.239.318.075.136.147.309.219.52.137.399.181.706.134.92-.047.214-.162.352-.342.414-1.392.472-2.787.933-4.185,1.383.904,2.8,1.809,5.6,2.714,8.4.335,1.037.761,1.766,1.28,2.183.518.417,1.227.481,2.123.184.289-.096.54-.207.749-.333.211-.126.393-.246.552-.361.156-.115.29-.219.398-.311.108-.092.213-.156.313-.19.063-.021.127-.028.193-.019.066.008.128.046.186.113.057.067.122.163.193.287.071.124.141.286.209.486Z"/><path d="M461.14,643.374c.128.34.227.66.298.959.07.299.109.592.116.877.008.285-.014.578-.066.879-.052.301-.134.629-.247.983-.442,1.452-.896,2.904-1.363,4.356-.036.1-.086.193-.15.278-.064.085-.148.172-.253.259-.107.088-.237.169-.391.243-.155.074-.355.154-.598.241-.218.077-.404.134-.558.169-.154.035-.27.045-.347.029-.079-.016-.132-.056-.162-.12-.031-.064-.034-.149-.014-.256.319-1.82.622-3.639.911-5.456-.256-.705-.511-1.411-.767-2.116-.108-.298-.16-.547-.154-.748.003-.201.065-.373.183-.515.116-.142.281-.27.493-.385.211-.115.478-.231.802-.35.31-.114.582-.197.818-.247.235-.05.441-.058.617-.024.175.035.331.126.466.276.133.15.257.373.369.669Z"/><path d="M481.605,613.678c.101.198.177.377.23.534.051.158.076.294.07.408-.005.114-.034.211-.085.29-.052.079-.123.141-.212.187-2.046,1.036-4.103,2.045-6.17,3.026,2.823,5.941,5.645,11.882,8.468,17.822.04.085.052.17.033.257-.019.087-.081.178-.185.272-.104.095-.251.203-.441.325-.189.121-.436.254-.742.397-.293.137-.551.241-.772.311-.221.07-.401.115-.54.134-.139.019-.249.008-.327-.033-.078-.041-.137-.105-.176-.19-2.751-5.974-5.502-11.948-8.254-17.923-2.076.954-4.162,1.881-6.257,2.78-.092.04-.185.054-.279.043-.094-.011-.182-.053-.268-.125-.085-.072-.174-.178-.267-.316-.093-.139-.184-.311-.271-.515-.088-.205-.15-.392-.189-.56-.038-.168-.056-.311-.052-.427.004-.117.034-.212.09-.287.056-.075.13-.132.221-.171,5.131-2.202,10.206-4.571,15.217-7.109.088-.045.18-.065.274-.06.094.005.189.042.287.111.099.068.196.173.297.313.099.14.201.309.301.508Z"/><path d="M501.761,617.383c.651,1.113,1.086,2.235,1.295,3.368.21,1.133.174,2.235-.109,3.303-.283,1.069-.83,2.085-1.639,3.044-.812.959-1.899,1.813-3.263,2.553-1.326.719-2.579,1.165-3.749,1.342-1.17.177-2.255.103-3.25-.216-.996-.32-1.891-.872-2.689-1.651-.797-.78-1.493-1.768-2.094-2.962-.579-1.152-.945-2.297-1.103-3.432-.159-1.135-.086-2.22.214-3.256.3-1.037.836-2,1.609-2.896.772-.896,1.803-1.69,3.094-2.393,1.247-.678,2.421-1.11,3.535-1.291,1.113-.182,2.16-.131,3.144.155.985.286,1.897.792,2.739,1.523.841.731,1.598,1.666,2.267,2.81ZM498.918,619.247c-.423-.744-.901-1.403-1.432-1.977-.533-.574-1.116-1.011-1.753-1.312-.637-.3-1.338-.427-2.105-.384-.767.044-1.6.313-2.504.804-.835.454-1.482.973-1.943,1.564-.461.59-.758,1.234-.893,1.933-.136.7-.125,1.438.034,2.214.159.776.445,1.566.86,2.367.399.77.853,1.453,1.365,2.046.512.593,1.088,1.043,1.729,1.35.641.307,1.356.441,2.148.398.793-.042,1.663-.318,2.607-.831.862-.468,1.535-1.012,2.017-1.629.482-.616.789-1.278.92-1.985.131-.706.101-1.444-.087-2.213-.19-.769-.511-1.551-.962-2.346Z"/><path d="M522.852,613.567c.053.078.076.16.071.25-.006.089-.05.19-.132.303-.082.113-.212.244-.393.395-.18.151-.419.327-.716.527-.308.208-.567.371-.777.491-.209.119-.394.207-.554.265-.159.057-.304.083-.431.076-.128-.007-.255-.031-.383-.073-3.783-.992-7.516-2.061-11.197-3.202,1.549,2.481,3.098,4.963,4.646,7.444.049.08.069.161.057.245-.013.084-.058.178-.138.283-.079.105-.207.226-.38.361-.174.136-.407.294-.697.473-.28.173-.519.306-.717.4-.199.095-.366.155-.501.183-.135.028-.24.026-.314-.004-.074-.03-.136-.085-.185-.166-4.069-6.692-8.138-13.383-12.207-20.075-.048-.08-.072-.162-.072-.245,0-.083.04-.175.117-.277.078-.102.195-.215.354-.34.158-.124.365-.266.622-.424.266-.164.491-.29.674-.376.182-.085.335-.139.454-.159.121-.02.221-.013.3.02.08.033.144.09.194.169,2.526,4.048,5.053,8.096,7.58,12.144.747-3.053,1.438-6.103,2.072-9.148.023-.155.061-.297.117-.425.055-.128.136-.258.241-.392.105-.133.245-.268.419-.405.174-.137.389-.291.647-.465.269-.18.498-.325.692-.434.193-.109.356-.184.492-.227.135-.042.246-.053.331-.033.083.021.157.074.216.162.079.116.122.257.132.421.009.164-.015.379-.071.643-.689,2.775-1.425,5.551-2.209,8.329,3.545,1.029,7.137,1.991,10.774,2.881.259.064.454.126.587.185.131.06.226.133.286.22Z"/><path d="M539,601.693c.058.074.085.153.081.239-.004.085-.04.185-.109.299-.069.114-.184.25-.344.406-.161.156-.372.337-.635.543-.275.214-.506.38-.696.498-.19.118-.349.197-.476.236-.127.039-.233.051-.316.033-.083-.017-.153-.063-.21-.137-1.884-2.448-3.768-4.895-5.652-7.343-.551-.715-1.058-1.242-1.521-1.581-.462-.34-.935-.574-1.419-.706-.485-.131-.982-.134-1.492-.011-.511.123-1.019.375-1.524.755-.653.49-1.153,1.184-1.505,2.084-.353.901-.601,2.018-.75,3.356,2.155,2.992,4.31,5.984,6.464,8.975.055.076.08.156.072.241-.007.085-.048.182-.121.293-.073.111-.193.241-.359.388-.166.148-.391.323-.671.523-.27.193-.502.343-.696.452-.195.109-.358.182-.492.219-.134.038-.239.044-.316.018-.076-.025-.142-.076-.196-.153-4.502-6.408-9.003-12.816-13.505-19.224-.054-.077-.082-.157-.087-.24-.004-.083.029-.178.1-.286.072-.108.183-.229.334-.366.151-.136.35-.292.598-.468.257-.183.475-.325.653-.424.178-.098.327-.163.446-.191.12-.028.22-.029.303-.002.082.027.15.079.205.156,1.846,2.564,3.693,5.127,5.539,7.691.242-1.26.612-2.339,1.115-3.243.503-.903,1.132-1.64,1.893-2.214.938-.708,1.831-1.167,2.687-1.377.856-.209,1.663-.234,2.426-.071.763.162,1.478.489,2.148.984.668.495,1.356,1.188,2.06,2.081,1.989,2.522,3.979,5.043,5.968,7.565Z"/><path d="M554.656,588.385c.095.104.124.22.089.348-.037.129-.116.272-.238.431-.123.16-.326.367-.607.622-.272.246-.501.429-.687.548-.187.121-.339.187-.459.2-.121.014-.227-.032-.321-.137-.351-.394-.702-.787-1.053-1.181-.124,1.102-.433,2.146-.927,3.126-.495.981-1.176,1.845-2.039,2.587-.756.649-1.513,1.151-2.268,1.504-.755.353-1.481.551-2.177.595-.695.045-1.354-.066-1.974-.33-.62-.265-1.169-.693-1.652-1.283-.564-.69-.889-1.424-.978-2.201-.09-.776.03-1.583.356-2.421.328-.839.855-1.707,1.582-2.612.726-.904,1.626-1.823,2.698-2.764.633-.555,1.264-1.114,1.893-1.675-.273-.307-.545-.613-.818-.92-.405-.456-.819-.808-1.24-1.061-.422-.252-.858-.385-1.31-.399-.451-.015-.924.09-1.42.315-.495.225-1.029.586-1.603,1.083-.614.532-1.113,1.072-1.494,1.62-.382.549-.694,1.058-.933,1.528-.242.471-.433.876-.575,1.216-.143.341-.276.562-.399.664-.082.068-.17.11-.261.125-.092.015-.191.006-.296-.029-.106-.034-.215-.099-.33-.195-.113-.097-.226-.213-.337-.349-.187-.226-.315-.419-.388-.581-.072-.161-.088-.356-.048-.588.041-.232.164-.566.368-1.003.203-.437.468-.903.793-1.399.325-.496.707-1.005,1.147-1.528.439-.523.918-1.008,1.438-1.459.967-.84,1.871-1.465,2.716-1.872.845-.406,1.641-.614,2.389-.619.749-.006,1.467.177,2.151.552.685.375,1.36.924,2.023,1.652,2.395,2.63,4.791,5.259,7.186,7.889ZM547.285,585.307c-.721.644-1.444,1.283-2.17,1.918-.7.612-1.266,1.191-1.696,1.738-.431.548-.734,1.068-.907,1.562-.174.493-.223.95-.149,1.37.075.42.266.814.575,1.182.527.629,1.182.933,1.967.905.784-.027,1.603-.403,2.447-1.131.686-.592,1.194-1.291,1.521-2.092.326-.801.543-1.783.645-2.942-.744-.836-1.488-1.673-2.232-2.509Z"/><path d="M559.483,572c.325.321.507.588.544.8.037.213-.028.404-.194.571-2.044,2.062-4.111,4.085-6.203,6.07-.18.171-.378.233-.592.186-.215-.047-.474-.233-.779-.558-.305-.324-.473-.593-.505-.805-.031-.212.043-.404.221-.573,2.073-1.968,4.124-3.974,6.15-6.018.077-.077.16-.136.248-.175.088-.039.189-.046.303-.019.115.026.238.08.37.163.132.083.278.202.436.359Z"/><path d="M575.199,558.383c.794.677,1.365,1.456,1.712,2.338.345.884.472,1.838.375,2.861-.098,1.024-.433,2.105-1.007,3.237-.574,1.133-1.382,2.273-2.422,3.413-.632.692-1.271,1.294-1.914,1.805-.643.511-1.244.937-1.8,1.28-.556.342-1.043.599-1.46.774-.417.175-.692.27-.826.291-.133.02-.25.023-.347.006-.099-.016-.205-.048-.319-.099-.114-.05-.239-.127-.377-.23-.137-.102-.294-.24-.471-.41-.304-.293-.479-.533-.528-.719-.047-.187-.007-.349.124-.485.09-.094.335-.215.737-.364.401-.149.888-.368,1.46-.658.573-.291,1.203-.668,1.894-1.135.689-.466,1.373-1.068,2.045-1.805.652-.715,1.15-1.415,1.492-2.094.342-.68.541-1.328.601-1.942.057-.614-.018-1.18-.228-1.694-.21-.516-.536-.966-.976-1.352-.485-.425-1.024-.689-1.617-.795-.593-.106-1.229-.058-1.907.141-.679.2-1.381.556-2.112,1.069-.73.513-1.467,1.176-2.214,1.987-.597.648-1.196,1.293-1.797,1.935-.078.084-.169.15-.272.199-.103.05-.216.072-.339.065-.121-.008-.255-.045-.4-.114-.145-.068-.307-.187-.486-.356-.161-.153-.281-.295-.36-.425-.078-.131-.123-.254-.135-.37-.013-.115,0-.222.035-.32.037-.098.097-.193.181-.283.53-.565,1.059-1.134,1.586-1.704.615-.667,1.092-1.337,1.43-2.006.337-.669.534-1.317.589-1.94.055-.624-.024-1.21-.236-1.756-.213-.546-.561-1.032-1.044-1.459-.351-.311-.745-.542-1.181-.694-.436-.152-.889-.203-1.359-.152-.469.051-.951.217-1.451.499-.498.282-.986.685-1.465,1.209-.523.573-.93,1.166-1.221,1.781-.291.615-.526,1.188-.703,1.72-.178.531-.308.989-.389,1.373-.082.385-.171.626-.262.723-.065.068-.133.119-.206.152-.072.033-.155.036-.251.009-.096-.026-.208-.087-.336-.182-.127-.096-.285-.232-.471-.411-.127-.122-.234-.234-.322-.337-.089-.103-.154-.204-.199-.301-.044-.098-.078-.194-.1-.29-.023-.095-.03-.227-.023-.396.006-.168.067-.465.178-.889.111-.424.286-.912.521-1.463.237-.552.553-1.144.949-1.78.396-.635.879-1.266,1.45-1.894.802-.884,1.603-1.575,2.406-2.074.803-.499,1.589-.817,2.362-.953.771-.135,1.517-.096,2.234.122.718.218,1.392.598,2.022,1.141.542.467.974.984,1.296,1.552.322.569.522,1.17.599,1.804.077.634.037,1.296-.124,1.984-.161.689-.465,1.382-.914,2.078.009.008.018.016.026.023.679-.638,1.389-1.144,2.131-1.52.743-.376,1.473-.623,2.195-.74.72-.117,1.422-.092,2.104.075.682.167,1.296.481,1.84.946Z"/></g></svg>